<svg width="792" height="243" viewBox="0 0 792 243" fill="none" xmlns="http://www.w3.org/2000/svg">
<path d="M769.374 204.98C774.481 204.98 778.688 206.483 781.993 209.487C785.298 212.492 786.95 216.473 786.95 221.43C786.95 226.388 785.298 230.369 781.993 233.373C778.688 236.378 774.481 237.88 769.374 237.88C764.116 237.88 759.834 236.378 756.529 233.373C753.374 230.369 751.797 226.388 751.797 221.43C751.797 216.473 753.374 212.492 756.529 209.487C759.834 206.483 764.116 204.98 769.374 204.98Z" fill="white"/>
<path d="M673.112 66.9219C689.17 66.9219 703.501 70.3129 715.942 77.2607C728.394 84.2143 738.018 94.256 744.77 107.248H744.771C751.723 120.183 755.069 135.71 755.069 153.61C755.069 171.094 751.634 186.644 744.592 200.107L744.593 200.108C737.72 213.535 727.989 224.093 715.437 231.663C702.981 239.265 688.744 243.004 672.887 243.004C656.828 243.004 642.498 239.612 630.057 232.664C617.594 225.705 607.893 215.657 600.991 202.655L600.98 202.633L600.968 202.611C594.199 189.556 590.93 174.059 590.93 156.314C590.93 138.812 594.371 123.248 601.429 109.774C608.446 96.3784 618.162 85.8314 630.562 78.2627C643.017 70.6602 657.255 66.9219 673.112 66.9219ZM609.953 105.324C608.535 107.501 607.203 109.775 605.96 112.148L605.351 113.338C599.147 125.69 596.046 140.015 596.046 156.314C596.046 173.44 599.201 188.088 605.511 200.256C611.97 212.424 620.983 221.738 632.551 228.198C644.118 234.658 657.564 237.888 672.887 237.888C687.909 237.888 701.205 234.358 712.772 227.298C720.69 222.527 727.407 216.485 732.924 209.176C727.408 216.482 720.694 222.521 712.778 227.29C701.211 234.351 687.915 237.881 672.893 237.881C657.57 237.881 644.124 234.651 632.557 228.191C620.989 221.732 611.975 212.417 605.516 200.249C599.206 188.081 596.052 173.433 596.052 156.308C596.052 139.482 599.357 124.761 605.967 112.142C607.208 109.771 608.537 107.498 609.953 105.324ZM672.211 81.21C664.833 81.21 658.394 83.9541 652.681 89.7871C646.933 95.8093 642.24 104.334 638.798 115.663C635.371 126.943 633.611 140.17 633.611 155.414C633.611 170.911 635.586 184.218 639.414 195.428L639.78 196.467C643.596 207.101 648.562 215.052 654.505 220.614C660.599 226.169 666.983 228.717 673.788 228.717C681.171 228.717 687.521 225.969 693.075 220.157L693.115 220.115C699 214.096 703.763 205.581 707.201 194.263C710.631 182.821 712.39 169.592 712.39 154.513C712.39 138.848 710.411 125.545 706.587 114.498C702.722 103.334 697.63 95.1383 691.521 89.5605L691.478 89.5225L691.437 89.4824C685.513 83.822 679.156 81.21 672.211 81.21ZM700.229 219.751C699.903 220.163 699.575 220.568 699.241 220.966C699.575 220.568 699.903 220.163 700.229 219.751ZM672.217 76.0869C663.353 76.0869 655.617 79.4674 649.007 86.2275C648.686 86.5632 648.37 86.9066 648.057 87.2549C648.369 86.9088 648.682 86.5671 649.001 86.2334C655.611 79.4736 663.348 76.0948 672.211 76.0947C680.624 76.0947 688.211 79.3245 694.971 85.7842C701.881 92.0936 707.364 101.107 711.42 112.824C715.476 124.542 717.505 138.438 717.505 154.513L717.499 155.958C717.39 170.843 715.589 184.107 712.097 195.75C709.258 205.094 705.487 212.854 700.786 219.031C705.49 212.852 709.263 205.09 712.103 195.742C715.708 183.724 717.511 169.978 717.511 154.505C717.511 138.431 715.483 124.535 711.427 112.817C707.371 101.1 701.887 92.0859 694.977 85.7764C688.216 79.3166 680.63 76.0869 672.217 76.0869ZM612.062 102.249C611.881 102.501 611.701 102.755 611.521 103.01C611.701 102.755 611.881 102.501 612.062 102.249ZM612.817 101.222C612.649 101.447 612.483 101.675 612.316 101.902C612.483 101.675 612.649 101.447 612.817 101.222ZM613.585 100.214C613.4 100.453 613.215 100.694 613.032 100.937C613.215 100.694 613.4 100.453 613.585 100.214ZM614.315 99.2852C614.157 99.4832 614 99.6828 613.844 99.8828C614 99.6828 614.157 99.4832 614.315 99.2852ZM615.114 98.3027C614.959 98.4899 614.806 98.6782 614.652 98.8672C614.806 98.6782 614.959 98.4899 615.114 98.3027ZM615.896 97.375C615.742 97.5548 615.589 97.7355 615.437 97.917C615.589 97.7355 615.742 97.5548 615.896 97.375ZM616.654 96.502C616.539 96.6328 616.424 96.7647 616.31 96.8965C616.424 96.7647 616.539 96.6328 616.654 96.502ZM617.495 95.5674C617.39 95.682 617.286 95.7968 617.182 95.9121C617.286 95.7968 617.39 95.682 617.495 95.5674ZM618.32 94.6797C618.207 94.7996 618.093 94.9193 617.98 95.04C618.093 94.9193 618.207 94.7996 618.32 94.6797ZM619.129 93.8389C619.044 93.9263 618.958 94.0137 618.873 94.1016C618.958 94.0137 619.044 93.9263 619.129 93.8389ZM619.985 92.9766C619.904 93.0572 619.822 93.1377 619.741 93.2188C619.822 93.1377 619.904 93.0572 619.985 92.9766ZM620.849 92.1348C620.768 92.2123 620.687 92.2903 620.606 92.3682C620.687 92.2902 620.768 92.2123 620.849 92.1348ZM621.782 91.2578C621.685 91.3475 621.588 91.4371 621.491 91.5273C621.588 91.4371 621.685 91.3475 621.782 91.2578ZM622.72 90.4082C622.594 90.52 622.468 90.6314 622.344 90.7441C622.468 90.6314 622.594 90.52 622.72 90.4082ZM623.491 89.7295C623.434 89.7792 623.376 89.828 623.318 89.8779C623.376 89.828 623.434 89.7792 623.491 89.7295ZM611.342 103.265C611.136 103.559 610.933 103.856 610.731 104.154C610.933 103.856 611.136 103.559 611.342 103.265ZM610.654 104.267C610.418 104.617 610.185 104.969 609.953 105.324C610.185 104.969 610.418 104.617 610.654 104.267Z" fill="white"/>
<path d="M313.47 70.0762C317.191 70.225 321.972 70.3745 327.817 70.5244C333.626 70.6734 339.892 70.748 346.615 70.748C352.733 70.748 358.775 70.6735 364.74 70.5244C370.737 70.3745 375.67 70.2252 379.544 70.0762L384.856 69.8711V84.6631L379.89 84.8086C374.993 84.9527 371.773 85.5284 369.877 86.2656L369.801 86.2949L369.725 86.3213C368.748 86.666 368.125 87.226 367.692 88.5234L367.679 88.5654L367.664 88.6084C367.068 90.2968 366.604 93.6179 366.604 99.0742V212.645C366.604 217.123 366.954 220.168 367.467 222.04C367.864 223.015 368.336 223.357 368.964 223.566C370.441 224.059 373.025 224.431 377.036 224.431H389.881C395.129 224.431 399.449 223.489 402.98 221.784L403.01 221.77L403.04 221.755C406.811 219.995 410.112 217.412 412.956 213.922C415.833 210.391 418.275 205.965 420.219 200.551C422.172 194.959 423.598 188.583 424.461 181.39L425.002 176.883H440.326L439.818 182.462C439.387 187.202 439.163 193.491 439.163 201.378C439.163 204.605 439.236 209.26 439.385 215.364C439.681 221.435 440.125 227.735 440.719 234.266L441.247 240.068L435.425 239.84C427.844 239.543 419.274 239.395 409.711 239.395H409.671L409.631 239.393C400.036 239.243 391.5 239.168 384.021 239.168H370.275C364.762 239.168 358.717 239.243 352.139 239.393L352.082 239.395H352.022C345.603 239.395 339.03 239.469 332.307 239.618L332.25 239.619H332.192C325.621 239.619 319.354 239.694 313.392 239.843L308.148 239.974V225.407L312.955 225.116C317.785 224.823 320.843 224.255 322.51 223.63L322.604 223.595C323.515 223.273 324.011 222.806 324.334 221.643L324.369 221.517L324.41 221.394C325.045 219.489 325.5 216.101 325.5 210.843V99.0742C325.5 93.618 325.035 90.2969 324.439 88.6084L324.382 88.4434L324.334 88.2744C324.011 87.1109 323.515 86.6432 322.604 86.3213L322.427 86.2588L322.256 86.1836C320.771 85.5342 317.89 84.9535 313.109 84.8086L308.148 84.6582V69.8633L313.47 70.0762ZM321.063 80.5049C322.324 80.7726 323.405 81.1037 324.307 81.498C326.86 82.3995 328.513 84.2024 329.264 86.9062C330.165 89.4601 330.615 93.5164 330.615 99.0742V210.843C330.615 216.251 330.165 220.308 329.264 223.012L329.113 223.507C328.304 225.936 326.701 227.575 324.307 228.42C321.903 229.321 318.222 229.921 313.265 230.222V234.729C313.267 234.729 313.269 234.729 313.271 234.729V230.223C318.228 229.922 321.909 229.321 324.312 228.42C326.866 227.519 328.518 225.716 329.27 223.012C330.171 220.308 330.622 216.252 330.622 210.844V99.0752C330.622 93.5168 330.171 89.4601 329.27 86.9062C328.518 84.2024 326.866 82.3994 324.312 81.498C323.411 81.1037 322.33 80.7734 321.069 80.5059L321.063 80.5049ZM423.107 234.387C427.535 234.462 431.707 234.575 435.624 234.729C431.707 234.575 427.535 234.462 423.107 234.387ZM429.541 181.999C428.64 189.51 427.137 196.27 425.034 202.279C422.931 208.138 420.226 213.096 416.921 217.152L416.295 217.902C413.126 221.59 409.429 224.42 405.204 226.392C400.848 228.495 395.739 229.546 389.881 229.546H377.036C376.384 229.546 375.756 229.536 375.151 229.518C375.758 229.536 376.388 229.547 377.042 229.547H389.887C395.746 229.547 400.853 228.495 405.21 226.392C409.717 224.288 413.623 221.209 416.928 217.153C420.233 213.097 422.937 208.139 425.04 202.28C427.143 196.271 428.646 189.511 429.547 182H434.724V181.999H429.541ZM313.265 79.6943C313.267 79.6944 313.269 79.6943 313.271 79.6943V75.1885C313.269 75.1884 313.267 75.1886 313.265 75.1885V79.6943ZM346.615 75.8633C345.857 75.8633 345.104 75.8603 344.357 75.8584C345.106 75.8603 345.861 75.8652 346.621 75.8652C347.334 75.8652 348.047 75.8604 348.758 75.8584C348.045 75.8604 347.33 75.8633 346.615 75.8633ZM313.944 75.2129C317.596 75.3543 322.178 75.4983 327.692 75.6396C330.236 75.7049 332.865 75.7551 335.579 75.792C334.426 75.7764 333.288 75.7581 332.165 75.7373L327.687 75.6387C322.175 75.4974 317.595 75.3542 313.944 75.2129ZM376.613 75.3008C373.289 75.4135 369.374 75.526 364.867 75.6387L360.348 75.7373C359.943 75.7448 359.537 75.75 359.132 75.7568C361.053 75.7243 362.968 75.6873 364.874 75.6396C370.88 75.4895 375.835 75.3386 379.74 75.1885L376.613 75.3008Z" fill="white"/>
<path d="M270.858 75.6885C270.267 81.7511 269.822 87.6601 269.525 93.416C269.377 99.0804 269.305 103.363 269.305 106.288C269.305 109.047 269.376 111.726 269.521 114.325C269.669 116.853 269.817 118.988 269.963 120.736L270.425 126.277H255.125L254.601 121.749C253.428 111.633 251.559 104.126 249.179 98.9678L249.167 98.9453L249.157 98.9229C246.803 93.6916 243.824 90.5012 240.435 88.752L240.346 88.7051L240.26 88.6553C236.779 86.6827 231.808 85.4903 224.979 85.4902H212.586C208.257 85.4902 205.412 85.8633 203.746 86.3838C202.917 86.6429 202.453 87.0371 202.099 87.917C201.612 89.587 201.251 92.5872 201.251 97.2744V147.143H206.05C210.026 147.143 212.675 146.307 214.43 145.106L214.479 145.071L214.529 145.039C216.881 143.51 218.722 141.608 220.112 139.307C221.7 136.52 222.873 133.704 223.649 130.856L223.669 130.784L223.69 130.713C224.682 127.454 225.372 124.47 225.779 121.754L226.432 117.396H241.509L241.124 122.871C240.527 131.374 240.237 137.753 240.235 142.077C240.384 146.579 240.461 150.725 240.461 154.511C240.461 158.2 240.534 162.274 240.683 166.734C240.83 171.146 241.201 177.606 241.801 186.151L242.185 191.626H227.096L226.453 187.254C225.749 182.467 224.629 178.002 223.106 173.849L223.071 173.754L223.04 173.658C221.814 169.857 219.879 167.078 217.319 165.075L217.222 164.999L217.129 164.918C215.091 163.158 211.668 161.88 206.05 161.88H201.251V212.648C201.251 217.123 201.601 220.167 202.113 222.039C202.466 222.896 202.927 223.283 203.746 223.539C205.412 224.06 208.257 224.434 212.586 224.434H225.431C232.48 224.434 237.943 223.118 242.088 220.802L242.143 220.771C246.289 218.52 249.822 214.752 252.605 209.052C255.426 203.124 257.652 194.715 259.116 183.589L259.702 179.14H275.006L274.464 184.749C274.035 189.177 273.811 195.005 273.811 202.283C273.811 205.355 273.884 209.853 274.032 215.8C274.329 221.722 274.773 227.875 275.367 234.258L275.908 240.073L270.072 239.844C262.492 239.546 253.922 239.397 244.358 239.397H244.318L244.278 239.396C234.684 239.247 226.148 239.172 218.67 239.172H204.924C199.411 239.172 193.365 239.247 186.787 239.396L186.729 239.397H186.671C180.251 239.397 173.678 239.472 166.954 239.621L166.898 239.622H166.841C160.269 239.622 154.002 239.697 148.04 239.846L142.797 239.978V225.41L147.603 225.119C152.432 224.826 155.49 224.258 157.157 223.633L157.205 223.615L157.251 223.598C158.163 223.276 158.659 222.809 158.982 221.645L159.018 221.52L159.059 221.397C159.693 219.493 160.147 216.105 160.147 210.846V99.0781C160.147 93.6214 159.683 90.2998 159.087 88.6113L159.029 88.4463L158.982 88.2783C158.659 87.1144 158.163 86.6471 157.251 86.3252L157.075 86.2627L156.904 86.1875C155.42 85.538 152.538 84.9574 147.758 84.8125L142.797 84.6611V69.9453L148.04 70.0771C154.031 70.2269 160.322 70.3776 166.911 70.5273C173.663 70.5279 180.269 70.6013 186.729 70.751H242.082C250.886 70.6013 258.706 70.3784 265.544 70.0811L271.431 69.8242L270.858 75.6885ZM174.124 234.373C171.708 234.408 169.271 234.449 166.815 234.504C160.215 234.504 153.914 234.579 147.912 234.729V234.732C153.921 234.582 160.231 234.507 166.841 234.507C169.288 234.452 171.716 234.408 174.124 234.373ZM269.346 184.256C268.895 188.912 268.67 194.921 268.67 202.28C268.67 205.435 268.745 210.017 268.896 216.026C269.196 222.035 269.646 228.27 270.247 234.729C262.586 234.429 253.947 234.279 244.333 234.279C234.719 234.129 226.156 234.054 218.645 234.054H204.898C199.34 234.054 193.256 234.129 186.646 234.279C182.699 234.279 178.697 234.309 174.639 234.365C177.045 234.332 179.432 234.309 181.799 234.296L186.671 234.282C193.281 234.132 199.366 234.056 204.924 234.056H218.67C226.181 234.056 234.744 234.132 244.358 234.282C253.973 234.282 262.611 234.432 270.272 234.732C269.672 228.273 269.221 222.038 268.921 216.029C268.771 210.02 268.695 205.438 268.695 202.283C268.695 194.922 268.921 188.913 269.372 184.256H269.346ZM196.11 156.762V212.646C196.11 217.453 196.486 221.134 197.237 223.688C198.139 226.091 199.791 227.669 202.194 228.42C203.187 228.73 204.36 228.975 205.712 229.157C204.575 229.003 203.565 228.804 202.683 228.559L202.22 228.423C199.816 227.672 198.163 226.094 197.262 223.69C196.605 221.456 196.236 218.359 196.153 214.399L196.136 212.648V156.765H206.05C207.319 156.765 208.528 156.823 209.676 156.938C208.521 156.821 207.304 156.762 206.025 156.762H196.11ZM235.995 122.513C235.394 131.074 235.094 137.609 235.094 142.115C235.244 146.622 235.319 150.753 235.319 154.509C235.319 158.264 235.395 162.396 235.545 166.902C235.695 171.409 236.071 177.944 236.672 186.507H231.515V186.51H236.697C236.171 179.017 235.817 173.077 235.637 168.689L235.571 166.904C235.459 163.525 235.387 160.356 235.358 157.398L235.331 151.623C235.303 148.666 235.233 145.497 235.12 142.117C235.12 137.61 235.42 131.075 236.021 122.513H235.995ZM230.529 80.6436C228.772 80.4626 226.914 80.3721 224.954 80.3721H212.56C208.053 80.3721 204.598 80.747 202.194 81.498C199.791 82.2492 198.139 83.827 197.237 86.2305C196.486 88.6341 196.11 92.315 196.11 97.2725V152.255H196.136V97.2744C196.136 92.3174 196.511 88.637 197.262 86.2334C198.107 83.9799 199.613 82.4523 201.778 81.6514L202.22 81.501C204.623 80.7499 208.079 80.375 212.586 80.375H224.979C226.93 80.375 228.78 80.4643 230.529 80.6436ZM265.739 75.1924C265.139 81.3503 264.689 87.3582 264.389 93.2158C264.238 98.9244 264.163 103.282 264.163 106.286C264.163 109.14 264.238 111.919 264.389 114.623C264.539 117.177 264.689 119.355 264.839 121.158H259.683V121.161H264.864C264.714 119.359 264.564 117.18 264.414 114.626C264.301 112.598 264.23 110.527 264.202 108.415L264.188 106.288C264.188 103.284 264.264 98.927 264.414 93.2188C264.715 87.36 265.166 81.3506 265.767 75.1914C265.758 75.1918 265.748 75.192 265.739 75.1924ZM150.065 79.7969C149.377 79.7535 148.659 79.7182 147.912 79.6953V79.6973C148.659 79.7199 149.377 79.7538 150.065 79.7969Z" fill="white"/>
<path d="M54.4795 67.3711C63.1366 67.3711 70.3606 68.2808 75.7598 70.4404C80.4512 72.317 84.618 74.3876 88.2227 76.6709C89.7655 77.5708 91.0227 78.2966 91.9951 78.8545C92.0039 78.8573 92.0128 78.8605 92.0215 78.8633C92.3893 77.78 92.7874 76.0804 93.126 73.5977L93.7295 69.1729H108.771L108.487 74.5586C108.336 77.4388 108.109 80.7496 107.811 84.4863C107.663 88.1843 107.516 93.1436 107.367 99.374V128.979H92.2461L91.9619 124.164C91.5457 117.089 89.9532 110.303 87.1787 103.783L87.1602 103.74L87.1436 103.698C84.5787 97.3538 80.9259 92.2829 76.2178 88.3594L76.1582 88.3096L76.1006 88.2588C71.9392 84.5732 66.4574 82.5596 59.2119 82.5596C52.9634 82.5596 48.0615 84.3674 44.1543 87.7822C40.5763 91.032 38.6388 95.4313 38.6387 101.555C38.6387 106.952 39.968 111.172 42.3643 114.504C45.1057 118.153 49.0828 121.912 54.4541 125.735C58.8083 128.638 63.7513 131.876 69.2842 135.453L75.0791 139.186C82.5713 144.078 89.335 148.994 95.3574 153.936C101.593 158.903 106.584 164.513 110.233 170.789C114.275 177.467 116.156 185.42 116.156 194.395C116.156 205.02 113.527 214.269 107.933 221.786C102.505 229.079 95.2373 234.448 86.3047 237.922C77.5426 241.329 68.0426 243.002 57.8604 243.002C48.7268 243.002 41.0315 242.083 35.0186 240.021L34.9961 240.014L34.9756 240.006C29.7014 238.144 25.0393 236.176 21.0225 234.087L20.8242 233.984L20.6357 233.865C19.1411 232.914 17.9507 232.288 17.04 231.913C16.9511 231.876 16.8664 231.843 16.7871 231.812C16.4748 233.008 16.1447 234.707 15.832 237L15.2285 241.425H0L0.483398 235.866C0.767551 232.598 0.915032 228.696 0.915039 224.141V224.058L0.917969 223.976C1.06572 219.395 1.14062 213.446 1.14062 206.112V206.062L1.1416 206.011C1.29089 198.546 1.36621 189.118 1.36621 177.72V172.604H16.4707L16.7705 177.401C17.3461 186.61 18.923 195.186 21.4766 203.146C24.0828 210.665 27.906 216.549 32.8555 220.984C37.574 225.085 44.0109 227.361 52.6768 227.361C57.3245 227.361 61.342 226.57 64.8135 225.09C68.2758 223.531 70.9468 221.25 72.9443 218.201C74.8348 215.17 75.9541 211.094 75.9541 205.662C75.954 200.323 74.7269 195.864 72.4268 192.111C69.939 188.053 66.3909 184.128 61.6631 180.374C56.7554 176.477 50.9273 172.465 44.1572 168.344L44.1113 168.316L44.0654 168.286C36.9006 163.713 30.1789 159.054 23.9033 154.31C17.3147 149.328 11.9241 143.636 7.80859 137.216L7.76758 137.152L7.72852 137.087C3.55843 130.137 1.59086 121.975 1.59082 112.822C1.59087 102.678 4.05559 93.9069 9.41211 86.9434C14.4997 80.1788 21.1218 75.193 29.1611 72.0107L29.1777 72.0039L29.1953 71.998C37.1732 68.9047 45.6146 67.3711 54.4795 67.3711ZM59.2012 77.4395C51.8402 77.4395 45.6811 79.6181 40.7236 83.9746C35.9164 88.3312 33.5127 94.1897 33.5127 101.551C33.5127 107.86 35.0903 113.193 38.2451 117.55C41.3999 121.756 45.8314 125.887 51.54 129.943C57.3989 133.849 64.3094 138.356 72.2715 143.464C79.6326 148.271 86.2427 153.078 92.1016 157.886C97.9604 162.543 102.543 167.726 105.848 173.435C109.303 179.143 111.03 186.128 111.03 194.391C111.03 204.155 108.627 212.268 103.819 218.728C99.0121 225.187 92.5518 229.995 84.4395 233.149C76.3273 236.304 67.464 237.882 57.8496 237.882C52.8778 237.882 48.4731 237.598 44.6357 237.03C48.0482 237.535 51.9088 237.819 56.2188 237.875L57.8604 237.887C67.1739 237.887 75.7827 236.406 83.6865 233.445L84.4502 233.154C92.3088 230.098 98.617 225.491 103.374 219.333L103.829 218.732C108.486 212.475 110.888 204.666 111.033 195.307L111.041 194.395C111.041 186.133 109.312 179.147 105.857 173.438C102.552 167.73 97.9701 162.547 92.1113 157.89C86.2526 153.083 79.6422 148.275 72.2812 143.468C64.3197 138.36 57.4094 133.854 51.5508 129.948C45.8422 125.892 41.4097 121.761 38.2549 117.555C35.1001 113.198 33.5225 107.864 33.5225 101.555C33.5226 94.1939 35.9273 88.335 40.7344 83.9785C45.6918 79.6223 51.8511 77.4434 59.2119 77.4434C63.5969 77.4434 67.5588 78.0994 71.0977 79.4111C67.5562 78.0968 63.5906 77.4395 59.2012 77.4395ZM43.3672 236.829C43.7628 236.896 44.1647 236.961 44.5732 237.021C44.1648 236.961 43.7628 236.896 43.3672 236.829ZM40.3867 236.233C41.3233 236.452 42.3031 236.646 43.3262 236.821C42.3032 236.647 41.3233 236.451 40.3867 236.233ZM15.7109 226.39C14.2087 226.39 13.0812 227.216 12.3301 228.868C11.7292 230.521 11.2036 232.999 10.7529 236.304H5.58008C5.57992 236.305 5.58023 236.308 5.58008 236.31H10.7637L10.9365 235.107C11.3472 232.397 11.8151 230.319 12.3408 228.873C13.0919 227.221 14.2185 226.394 15.7207 226.394C16.4709 226.394 17.3509 226.577 18.3613 226.941C17.3467 226.575 16.4637 226.39 15.7109 226.39ZM39.291 235.963C39.5609 236.033 39.8347 236.101 40.1123 236.168C39.8347 236.102 39.5609 236.033 39.291 235.963ZM38.3623 235.709C38.591 235.775 38.823 235.838 39.0576 235.9C38.823 235.838 38.591 235.775 38.3623 235.709ZM37.3447 235.4C37.5282 235.459 37.7137 235.517 37.9014 235.573C37.7137 235.517 37.5282 235.459 37.3447 235.4ZM29.0156 232.204C31.3738 233.218 33.9277 234.212 36.6777 235.183C36.7467 235.206 36.8171 235.227 36.8867 235.25C36.8134 235.225 36.7396 235.203 36.667 235.178C33.921 234.209 31.3708 233.217 29.0156 232.204ZM27.3623 231.475C27.6466 231.603 27.9341 231.731 28.2246 231.859C27.9341 231.731 27.6467 231.603 27.3623 231.475ZM11.6543 177.72C12.2554 187.333 13.9086 196.345 16.6123 204.757C19.4666 213.019 23.7477 219.704 29.4561 224.812C30.6427 225.846 31.9083 226.774 33.249 227.599C32.1187 226.903 31.0422 226.133 30.0215 225.288L29.4668 224.816C23.7584 219.709 19.4774 213.024 16.623 204.762C13.919 196.349 12.265 187.334 11.6641 177.72H11.6543ZM18.5479 227.009C18.7972 227.103 19.0536 227.209 19.3184 227.324C19.0537 227.209 18.7972 227.103 18.5479 227.009ZM103.368 74.2891C103.218 77.1423 102.993 80.4456 102.692 84.1992C102.542 87.9549 102.392 92.9883 102.242 99.2979V123.859H97.0693V123.864H102.252V99.3018C102.402 92.9924 102.552 87.9597 102.702 84.2041C103.003 80.4487 103.228 77.1432 103.378 74.2891H103.368ZM78.7568 77.3213C81.2557 78.5054 83.5257 79.7463 85.5664 81.0449C87.369 82.0964 88.7961 82.9225 89.8477 83.5234L89.8506 83.5244C88.7997 82.9239 87.3747 82.099 85.5762 81.0498C83.5329 79.7495 81.2596 78.5068 78.7568 77.3213ZM71.207 79.4521C71.5085 79.5653 71.8063 79.6849 72.1016 79.8076C71.8063 79.6847 71.5085 79.5654 71.207 79.4521ZM76.626 76.3506C76.9324 76.4851 77.2359 76.6198 77.5361 76.7559C77.2359 76.6199 76.9324 76.485 76.626 76.3506ZM75.248 75.7598C75.384 75.8167 75.5195 75.8734 75.6543 75.9307C75.5195 75.8735 75.384 75.8167 75.248 75.7598Z" fill="white"/>
<path d="M531.626 210.839C531.626 216.096 532.082 219.484 532.717 221.389C533.187 222.798 533.82 223.32 534.595 223.616C536.491 224.272 539.597 224.826 544.18 225.112L548.976 225.412V240.266L543.453 239.823C539.887 239.538 535.228 239.391 529.439 239.391H529.374L529.309 239.389C523.494 239.24 517.603 239.164 511.638 239.164C504.916 239.164 498.649 239.24 492.839 239.389L492.774 239.391H492.708C486.919 239.391 482.262 239.538 478.695 239.823L473.172 240.266V225.403L477.978 225.11C482.809 224.818 485.867 224.251 487.533 223.626L487.58 223.608L487.627 223.592C488.538 223.27 489.035 222.802 489.358 221.638L489.394 221.513L489.435 221.389C490.069 219.485 490.522 216.098 490.522 210.839V112.246H531.626V210.839ZM495.638 210.839L495.632 211.837C495.579 216.748 495.133 220.471 494.288 223.006L494.136 223.502C493.326 225.932 491.723 227.57 489.329 228.415C486.925 229.316 483.244 229.917 478.287 230.218V234.724C478.289 234.723 478.291 234.723 478.293 234.723V230.221C483.25 229.92 486.931 229.32 489.335 228.419C491.889 227.518 493.542 225.714 494.293 223.01C495.194 220.306 495.644 216.249 495.644 210.842V117.365H526.511V117.362H495.638V210.839ZM532.45 228.266C532.574 228.319 532.699 228.371 532.827 228.419C535.38 229.32 539.057 229.919 543.86 230.22V230.218C539.355 229.936 535.838 229.392 533.312 228.582L532.821 228.415C532.695 228.368 532.572 228.318 532.45 228.266ZM532.083 228.097C532.189 228.148 532.295 228.2 532.404 228.247C532.295 228.2 532.189 228.148 532.083 228.097Z" fill="white"/>
<path d="M545.843 69.998C546.653 69.9981 547.439 70.0866 548.189 70.2539C548.489 70.3208 548.784 70.3999 549.071 70.4912C551.372 71.2214 553.252 72.7099 554.307 74.6074C554.438 74.8444 554.557 75.0879 554.662 75.3369C554.715 75.4616 554.765 75.5874 554.811 75.7148C555.085 76.4792 555.232 77.2921 555.232 78.1348V92.376L555.22 92.7939C555.212 92.9283 555.2 93.0618 555.185 93.1943C555.182 93.2205 555.177 93.2464 555.174 93.2725C555.16 93.3789 555.145 93.4847 555.127 93.5898C555.119 93.6366 555.109 93.683 555.1 93.7295C555.083 93.8162 555.066 93.9026 555.046 93.9883C555.036 94.0292 555.025 94.0696 555.015 94.1104C554.993 94.195 554.972 94.2796 554.948 94.3633C554.932 94.42 554.913 94.476 554.896 94.5322C554.874 94.6006 554.852 94.6687 554.828 94.7363C554.809 94.7906 554.79 94.8447 554.77 94.8984C554.743 94.968 554.716 95.0368 554.688 95.1055C554.666 95.1574 554.645 95.2093 554.622 95.2607C554.592 95.3283 554.562 95.3953 554.53 95.4619C554.502 95.521 554.473 95.5793 554.443 95.6377C554.413 95.6969 554.383 95.756 554.352 95.8145C554.323 95.8672 554.294 95.9196 554.265 95.9717C554.226 96.039 554.187 96.1056 554.146 96.1719C554.119 96.2169 554.092 96.2621 554.063 96.3066C554.02 96.3741 553.976 96.4406 553.931 96.5068C553.901 96.5503 553.871 96.5938 553.841 96.6367C553.789 96.7102 553.735 96.7826 553.68 96.8545C553.655 96.8871 553.63 96.9198 553.604 96.9521C553.555 97.0155 553.503 97.0776 553.451 97.1396C553.412 97.1861 553.374 97.2327 553.334 97.2783C553.286 97.3338 553.236 97.388 553.186 97.4424C553.148 97.4834 553.111 97.5251 553.072 97.5654C553.008 97.633 552.941 97.699 552.874 97.7646C552.843 97.7946 552.814 97.8259 552.783 97.8555C552.59 98.0388 552.388 98.2145 552.177 98.3818C552.12 98.4268 552.061 98.4689 552.003 98.5127C551.949 98.5534 551.896 98.5952 551.841 98.6348C551.796 98.6667 551.751 98.6973 551.706 98.7285C551.631 98.7808 551.555 98.8325 551.478 98.8828C551.442 98.9063 551.405 98.9282 551.368 98.9512C551.295 98.9975 551.221 99.0443 551.146 99.0889C551.084 99.126 551.021 99.1614 550.957 99.1973C550.893 99.2332 550.829 99.2691 550.765 99.3037C550.706 99.3349 550.647 99.3644 550.588 99.3945C550.528 99.4248 550.469 99.4552 550.408 99.4844C550.334 99.5204 550.258 99.5555 550.183 99.5898C550.127 99.615 550.071 99.6398 550.015 99.6641C549.943 99.6948 549.871 99.7247 549.799 99.7539C549.736 99.7791 549.674 99.8041 549.61 99.8281C549.54 99.8547 549.47 99.8811 549.399 99.9062C549.333 99.93 549.265 99.9522 549.197 99.9746C549.125 99.9986 549.053 100.022 548.979 100.045C548.912 100.066 548.844 100.085 548.775 100.104C548.707 100.124 548.638 100.144 548.568 100.162C548.488 100.183 548.407 100.202 548.326 100.222C548.261 100.237 548.196 100.252 548.131 100.267C548.055 100.283 547.978 100.298 547.901 100.312C547.83 100.326 547.758 100.341 547.686 100.354C547.623 100.364 547.56 100.373 547.497 100.383C547.406 100.397 547.315 100.412 547.224 100.424C547.187 100.429 547.149 100.432 547.112 100.437C546.697 100.485 546.273 100.513 545.843 100.513H498.896C498.463 100.513 498.038 100.485 497.62 100.436C497.585 100.431 497.55 100.428 497.515 100.424C497.419 100.412 497.323 100.397 497.229 100.382C497.171 100.373 497.114 100.364 497.058 100.354C496.981 100.341 496.906 100.326 496.83 100.312C496.756 100.297 496.682 100.284 496.608 100.268C496.539 100.253 496.47 100.235 496.401 100.219C496.326 100.201 496.251 100.184 496.177 100.164C496.103 100.145 496.031 100.124 495.958 100.104C495.892 100.085 495.826 100.066 495.761 100.046C495.683 100.022 495.606 99.9963 495.529 99.9707C495.47 99.951 495.411 99.9309 495.353 99.9102C495.272 99.8817 495.192 99.8526 495.112 99.8223C495.059 99.8019 495.006 99.781 494.953 99.7598C494.875 99.7284 494.798 99.6962 494.721 99.6631C494.665 99.6392 494.61 99.6146 494.556 99.5898C494.48 99.5555 494.405 99.5204 494.33 99.4844C494.273 99.4568 494.217 99.428 494.16 99.3994C494.095 99.3662 494.029 99.3334 493.965 99.2988C493.903 99.2657 493.842 99.2316 493.781 99.1973C493.721 99.1631 493.66 99.1291 493.601 99.0938C493.527 99.0502 493.455 99.0053 493.383 98.96C493.338 98.9318 493.293 98.9039 493.249 98.875C493.185 98.8331 493.122 98.7894 493.06 98.7461C493.005 98.7087 492.951 98.6722 492.897 98.6338C492.843 98.5943 492.789 98.5533 492.735 98.5127C492.409 98.2668 492.103 98.002 491.819 97.7197C491.767 97.6682 491.715 97.6171 491.665 97.5645C491.637 97.5353 491.61 97.5051 491.583 97.4756C491.519 97.4069 491.456 97.3381 491.395 97.2676C491.363 97.2318 491.333 97.1954 491.303 97.1592C491.246 97.0918 491.19 97.024 491.136 96.9551C491.103 96.9132 491.071 96.8705 491.039 96.8281C490.995 96.7705 490.952 96.7129 490.91 96.6543C490.867 96.5935 490.825 96.5316 490.783 96.4697C490.751 96.4218 490.719 96.3738 490.688 96.3252C490.653 96.271 490.619 96.2161 490.586 96.1611C490.548 96.0983 490.51 96.0354 490.474 95.9717C490.444 95.9196 490.415 95.8672 490.387 95.8145C490.356 95.7581 490.327 95.7015 490.298 95.6445C490.264 95.577 490.23 95.5089 490.198 95.4404C490.175 95.3919 490.154 95.343 490.132 95.2939C490.103 95.2298 490.075 95.1655 490.049 95.1006C490.021 95.0336 489.995 94.9662 489.97 94.8984C489.949 94.8446 489.929 94.7907 489.91 94.7363C489.889 94.6749 489.869 94.6128 489.85 94.5508C489.828 94.4823 489.805 94.414 489.785 94.3447C489.77 94.2936 489.758 94.2419 489.744 94.1904C489.725 94.1161 489.705 94.0419 489.688 93.9668C489.673 93.9028 489.661 93.838 489.648 93.7734C489.61 93.5824 489.576 93.3897 489.554 93.1943C489.538 93.0618 489.527 92.9283 489.52 92.7939C489.511 92.6555 489.508 92.5162 489.508 92.376V78.1348C489.508 77.8583 489.523 77.5848 489.554 77.3154C489.578 77.1085 489.613 76.9042 489.654 76.7021C489.667 76.6402 489.679 76.5781 489.693 76.5166C489.714 76.426 489.739 76.3365 489.764 76.2471C489.774 76.2081 489.784 76.1687 489.795 76.1299C489.817 76.0553 489.842 75.9819 489.866 75.9082C489.883 75.8561 489.899 75.8036 489.917 75.752C489.938 75.6938 489.96 75.6367 489.982 75.5791C490.009 75.5106 490.033 75.4417 490.062 75.374C490.083 75.3228 490.106 75.2725 490.129 75.2217C490.161 75.1495 490.192 75.077 490.227 75.0059C490.251 74.9548 490.278 74.905 490.304 74.8545C490.338 74.7864 490.373 74.7185 490.41 74.6514C490.438 74.5999 490.468 74.549 490.497 74.498C490.533 74.4359 490.569 74.3737 490.606 74.3125C490.645 74.2501 490.684 74.1884 490.725 74.127C490.755 74.0798 490.786 74.0328 490.818 73.9863C490.86 73.9249 490.903 73.8641 490.947 73.8037C490.987 73.7492 491.027 73.6952 491.068 73.6416C491.106 73.5929 491.144 73.545 491.183 73.4971C491.229 73.4387 491.277 73.3805 491.325 73.3232C491.362 73.2802 491.399 73.2377 491.437 73.1953C491.49 73.1351 491.544 73.0755 491.599 73.0166C491.639 72.9738 491.68 72.9318 491.721 72.8896C491.775 72.8342 491.829 72.7788 491.885 72.7246C491.929 72.6812 491.975 72.6383 492.021 72.5957C492.074 72.5457 492.128 72.4961 492.184 72.4473C492.231 72.4051 492.279 72.3636 492.328 72.3223C492.384 72.2752 492.439 72.2285 492.496 72.1826C492.551 72.1384 492.606 72.0948 492.662 72.0518C492.715 72.0107 492.769 71.9697 492.823 71.9297C492.881 71.8875 492.939 71.8457 492.997 71.8047C493.062 71.759 493.129 71.7151 493.195 71.6709C493.238 71.6425 493.281 71.6137 493.324 71.5859C493.411 71.5306 493.498 71.4766 493.587 71.4238C493.607 71.4118 493.627 71.3996 493.647 71.3877L493.776 71.3125C493.834 71.28 493.893 71.2492 493.951 71.2178C493.99 71.1966 494.03 71.175 494.069 71.1543C494.15 71.1124 494.231 71.0721 494.313 71.0322C494.365 71.0071 494.417 70.9813 494.469 70.957C494.55 70.9192 494.633 70.8835 494.716 70.8477C494.766 70.8262 494.815 70.8039 494.865 70.7832C494.944 70.7508 495.024 70.721 495.104 70.6904C495.167 70.6662 495.23 70.6412 495.294 70.6182C495.357 70.5954 495.421 70.5743 495.484 70.5527C495.561 70.5269 495.637 70.5007 495.715 70.4766C495.787 70.454 495.86 70.4342 495.934 70.4131C496.001 70.3937 496.068 70.3735 496.136 70.3555C496.228 70.331 496.321 70.3092 496.414 70.2871C496.466 70.2747 496.519 70.2607 496.571 70.249C496.668 70.2277 496.765 70.2092 496.863 70.1904C496.916 70.1804 496.969 70.1695 497.021 70.1602C497.464 70.0823 497.919 70.0315 498.382 70.0098C498.552 70.0018 498.724 69.998 498.896 69.998H545.843Z" fill="white"/>
<path d="M773.301 25.8672V42.2513H770.014V31.5946L765.625 42.2513H763.137L758.724 31.5946V42.2513H755.438V25.8672H759.17L764.381 38.0496L769.592 25.8672H773.301Z" fill="white"/>
<path d="M753.026 25.8672V28.5196H748.66V42.2513H745.374V28.5196H741.008V25.8672H753.026Z" fill="white"/>
<path d="M786.063 34.0357C786.063 18.4793 773.452 5.86823 757.895 5.86823C742.339 5.86823 729.728 18.4793 729.728 34.0357C729.728 49.5922 742.339 62.2033 757.895 62.2033V68.0715C739.098 68.0715 723.859 52.8332 723.859 34.0357C723.859 15.2383 739.098 0 757.895 0C776.693 0 791.931 15.2383 791.931 34.0357C791.931 52.8332 776.693 68.0715 757.895 68.0715V62.2033C773.452 62.2033 786.063 49.5922 786.063 34.0357Z" fill="white"/>
</svg>
